<?xml version="1.0" encoding="UTF-8" standalone="no"?>
<svg
   xmlns:dc="http://purl.org/dc/elements/1.1/"
   xmlns:cc="http://creativecommons.org/ns#"
   xmlns:rdf="http://www.w3.org/1999/02/22-rdf-syntax-ns#"
   xmlns:svg="http://www.w3.org/2000/svg"
   xmlns="http://www.w3.org/2000/svg"
   xmlns:sodipodi="http://sodipodi.sourceforge.net/DTD/sodipodi-0.dtd"
   xmlns:inkscape="http://www.inkscape.org/namespaces/inkscape"
   viewBox="0 0 16 16"
   enable-background="new 0 0 16 16"
   version="1.1"
   id="svg8"
   sodipodi:docname="TextFileSearch_16x.svg"
   inkscape:version="0.92.3 (2405546, 2018-03-11)"
   inkscape:export-filename="C:\Users\user\source\repos\lucasloss\_VS2017 Image Library\TextFileSearch_128x.png"
   inkscape:export-xdpi="768"
   inkscape:export-ydpi="768">
  <metadata
     id="metadata14">
    <rdf:RDF>
      <cc:Work
         rdf:about="">
        <dc:format>image/svg+xml</dc:format>
        <dc:type
           rdf:resource="http://purl.org/dc/dcmitype/StillImage" />
      </cc:Work>
    </rdf:RDF>
  </metadata>
  <defs
     id="defs12" />
  <sodipodi:namedview
     pagecolor="#ffffff"
     bordercolor="#666666"
     borderopacity="1"
     objecttolerance="10"
     gridtolerance="10"
     guidetolerance="10"
     inkscape:pageopacity="0"
     inkscape:pageshadow="2"
     inkscape:window-width="2560"
     inkscape:window-height="1017"
     id="namedview10"
     showgrid="false"
     inkscape:zoom="14.75"
     inkscape:cx="10.56254"
     inkscape:cy="6.533995"
     inkscape:window-x="-8"
     inkscape:window-y="-8"
     inkscape:window-maximized="1"
     inkscape:current-layer="svg8" />
  <style
     type="text/css"
     id="style2">.icon-canvas-transparent{opacity:0;fill:#F6F6F6;} .icon-vs-out{fill:#F6F6F6;} .icon-vs-fg{fill:#F0EFF1;} .icon-vs-bg{fill:#424242;}</style>
  <path
     class="icon-canvas-transparent"
     d="M16 16h-16v-16h16v16z"
     id="canvas" />
  <path
     class="icon-vs-out"
     d="M15 16h-13v-16h8.621l4.379 4.379v11.621z"
     id="outline" />
  <path
     class="icon-vs-bg"
     d="M3 1v14h11v-10.207l-3.793-3.793h-7.207zm10 13h-9v-12h5v4h4v8zm-3-9v-2.793l2.793 2.793h-2.793zm-2 1h-3v-1h3v1zm4 2h-7v1h7v-1zm0 3h-7v1h7v-1z"
     id="iconBg" />
  <path
     class="icon-vs-fg"
     d="M9 6v-4h-5v12h9v-8h-4zm-4-1h3v1h-3v-1zm7 7h-7v-1h7v1zm0-3h-7v-1h7v1zm.793-4h-2.793v-2.793l2.793 2.793z"
     id="iconFg" />
  <rect
     style="fill:#bc0000;fill-opacity:1;stroke-width:2.39304638"
     id="rect827"
     width="7.0000005"
     height="0.99999934"
     x="5"
     y="8" />
  <circle
     style="fill:#f6f6f6;fill-opacity:1;stroke-width:1.03370786"
     id="path829"
     cx="-3.349443"
     cy="11.327751"
     r="3.3078215"
     transform="rotate(-45)" />
  <rect
     style="fill:#f6f6f6;fill-opacity:1;stroke-width:1.00036466"
     id="rect831"
     width="4.5575686"
     height="2.9482756"
     x="-9.8365736"
     y="9.8425665"
     transform="rotate(-45)" />
  <path
     inkscape:connector-curvature="0"
     class="st2"
     d="m 3.4520992,11.553137 -2.313,2.312 0.9999999,1 2.3130001,-2.313 c 0.3549998,0.194 0.7550002,0.313 1.1870001,0.313 a 2.5,2.5 0 1 0 -2.5,-2.5 c -10e-8,0.432 0.1189999,0.832 0.3129999,1.188 z m 0.6870001,-1.188 a 1.5005002,1.5005002 0 1 1 3.0010002,0.001 1.5005002,1.5005002 0 0 1 -3.0010002,-0.001 z"
     id="color_x5F_action"
     style="fill:#00539c;fill-opacity:1" />
</svg>
